<mxfile host="app.diagrams.net" modified="2025-05-19T08:53:06.776Z" agent="Mozilla/5.0 (Macintosh; Intel Mac OS X 10_15_7) AppleWebKit/537.36 (KHTML, like Gecko) Chrome/136.0.0.0 Safari/537.36" version="24.3.1" etag="S3ZkUNW_BqlX0ulx6wzh" type="github">
  <diagram name="第 1 页" id="3a9XxEqRJpEGJEU9GApZ">
    <mxGraphModel>
      <root>
        <mxCell id="0" />
        <mxCell id="1" parent="0" />
      </root>
    </mxGraphModel>
  </diagram>
</mxfile>
